<svg width="12" height="11" viewBox="0 0 12 11" fill="none" xmlns="http://www.w3.org/2000/svg">
<path d="M5.10333 0.649944C5.47017 -0.0932242 6.52991 -0.0932246 6.89675 0.649944L7.82759 2.53574C7.97313 2.83058 8.25432 3.03504 8.57967 3.0826L10.6629 3.3871C11.4828 3.50694 11.8096 4.51478 11.216 5.09294L9.71016 6.55965C9.47429 6.7894 9.36663 7.12053 9.42229 7.44506L9.77747 9.51594C9.91759 10.3329 9.06004 10.9559 8.32641 10.5701L6.46549 9.59142C6.17411 9.43819 5.82597 9.43819 5.53459 9.59142L3.67367 10.5701C2.94004 10.9559 2.08249 10.3329 2.22261 9.51594L2.57779 7.44506C2.63345 7.12053 2.52579 6.7894 2.28992 6.55965L0.784052 5.09294C0.190459 4.51478 0.517242 3.50694 1.33716 3.3871L3.42041 3.0826C3.74576 3.03504 4.02695 2.83058 4.17249 2.53574L5.10333 0.649944Z" fill="#FFAB00"/>
</svg>
