<svg width="16" height="15" viewBox="0 0 16 15" fill="none" xmlns="http://www.w3.org/2000/svg">
<path d="M7.10331 1.48326C7.47015 0.740088 8.52989 0.740088 8.89673 1.48326L10.3426 4.41238C10.4881 4.70723 10.7693 4.91169 11.0947 4.95924L14.3296 5.43208C15.1495 5.55192 15.4763 6.55976 14.8827 7.13792L12.5435 9.4163C12.3076 9.64604 12.1999 9.97717 12.2556 10.3017L12.8074 13.5193C12.9476 14.3362 12.09 14.9592 11.3564 14.5734L8.46547 13.0531C8.17409 12.8998 7.82595 12.8998 7.53457 13.0531L4.64365 14.5734C3.91002 14.9592 3.05247 14.3362 3.19259 13.5193L3.74444 10.3017C3.8001 9.97717 3.69244 9.64604 3.45656 9.4163L1.11737 7.13792C0.523774 6.55976 0.850556 5.55192 1.67047 5.43208L4.90539 4.95924C5.23074 4.91169 5.51193 4.70723 5.65747 4.41238L7.10331 1.48326Z" fill="#E4E4E4"/>
</svg>
