<svg width="24" height="23" viewBox="0 0 24 23" fill="none" xmlns="http://www.w3.org/2000/svg">
<path d="M11.3533 2.15013C11.7202 1.40696 12.7799 1.40696 13.1467 2.15013L15.6226 7.16592C15.7681 7.46077 16.0493 7.66523 16.3747 7.71278L21.9129 8.52228C22.7328 8.64212 23.0596 9.64996 22.466 10.2281L18.4602 14.1298C18.2243 14.3596 18.1166 14.6907 18.1723 15.0152L19.1175 20.5261C19.2576 21.3431 18.4 21.9661 17.6664 21.5802L12.7155 18.9766C12.4241 18.8234 12.076 18.8234 11.7846 18.9766L6.83367 21.5802C6.10004 21.9661 5.24249 21.3431 5.38261 20.5261L6.32779 15.0152C6.38346 14.6907 6.27579 14.3596 6.03992 14.1298L2.03405 10.2281C1.44046 9.64997 1.76724 8.64212 2.58716 8.52228L8.12541 7.71278C8.45076 7.66523 8.73195 7.46077 8.87749 7.16592L11.3533 2.15013Z" stroke="#555555" stroke-width="2" stroke-linecap="round" stroke-linejoin="round"/>
</svg>
