<svg width="29" height="28" viewBox="0 0 29 28" fill="none" xmlns="http://www.w3.org/2000/svg">
<path d="M13.3533 4.15013C13.7201 3.40696 14.7799 3.40696 15.1467 4.15013L17.6225 9.16592C17.7681 9.46077 18.0493 9.66523 18.3746 9.71278L23.9129 10.5223C24.7328 10.6421 25.0596 11.65 24.466 12.2281L20.4601 16.1298C20.2242 16.3596 20.1166 16.6907 20.1722 17.0152L21.1174 22.5261C21.2575 23.3431 20.4 23.9661 19.6663 23.5802L14.7154 20.9766C14.424 20.8234 14.0759 20.8234 13.7845 20.9766L8.83361 23.5802C8.09998 23.9661 7.24243 23.3431 7.38255 22.5261L8.32773 17.0152C8.38339 16.6907 8.27573 16.3596 8.03986 16.1298L4.03399 12.2281C3.4404 11.65 3.76718 10.6421 4.5871 10.5223L10.1253 9.71278C10.4507 9.66523 10.7319 9.46077 10.8774 9.16592L13.3533 4.15013Z" stroke="#04A25F" stroke-width="2" stroke-linecap="round" stroke-linejoin="round"/>
</svg>
