<svg width="24" height="24" viewBox="0 0 24 24" fill="none" xmlns="http://www.w3.org/2000/svg">
<path d="M2.55198 18.9975C2.55246 18.8251 2.5975 18.6558 2.68268 18.506L11.1462 4.37688C11.2352 4.23081 11.3603 4.11002 11.5094 4.02607C11.6592 3.94176 11.8281 3.89746 12 3.89746C12.1719 3.89746 12.3408 3.94176 12.4906 4.02607C12.6397 4.11002 12.7647 4.23081 12.8538 4.37688C12.8542 4.37753 12.8546 4.37818 12.855 4.37883L21.3173 18.506C21.4025 18.6558 21.4475 18.8251 21.448 18.9975C21.4485 19.1721 21.4033 19.3438 21.3168 19.4955C21.2303 19.6472 21.1056 19.7736 20.9551 19.8622C20.806 19.95 20.6366 19.9975 20.4636 20.0002H3.53639C3.36339 19.9975 3.19401 19.95 3.04483 19.8622C2.89434 19.7736 2.76966 19.6472 2.68319 19.4955C2.59673 19.3438 2.55149 19.1721 2.55198 18.9975Z" fill="#FFAB00" stroke="#FFAB00" stroke-width="2" stroke-linecap="round" stroke-linejoin="round"/>
<path d="M12 9V13" stroke="white" stroke-width="2" stroke-linecap="round" stroke-linejoin="round"/>
<path d="M12 17H12.01" stroke="white" stroke-width="2" stroke-linecap="round" stroke-linejoin="round"/>
</svg>
