<?xml version="1.0" encoding="UTF-8" standalone="no"?>
<svg
   sodipodi:docname="3 - Egg And Bacon.svg"
   inkscape:version="1.1.1 (1:1.1+202109281949+c3084ef5ed)"
   id="svg831"
   version="1.1"
   viewBox="0 0 22.577778 22.577778"
   height="64pt"
   width="64pt"
   inkscape:export-filename="/media/taufikramadhan/Data/Tr Design Studio/Project Design/TR Creative Design/Icon Design/Project Hiring/Icon Icons/010 - Food/Send/1 - Line/3 - Egg And Bacon.png"
   inkscape:export-xdpi="576"
   inkscape:export-ydpi="576"
   xmlns:inkscape="http://www.inkscape.org/namespaces/inkscape"
   xmlns:sodipodi="http://sodipodi.sourceforge.net/DTD/sodipodi-0.dtd"
   xmlns="http://www.w3.org/2000/svg"
   xmlns:svg="http://www.w3.org/2000/svg"
   xmlns:rdf="http://www.w3.org/1999/02/22-rdf-syntax-ns#"
   xmlns:cc="http://creativecommons.org/ns#"
   xmlns:dc="http://purl.org/dc/elements/1.1/">
  <defs
     id="defs825">
    <pattern
       y="0"
       x="0"
       height="6"
       width="6"
       patternUnits="userSpaceOnUse"
       id="EMFhbasepattern" />
    <pattern
       y="0"
       x="0"
       height="6"
       width="6"
       patternUnits="userSpaceOnUse"
       id="EMFhbasepattern-9" />
    <pattern
       y="0"
       x="0"
       height="6"
       width="6"
       patternUnits="userSpaceOnUse"
       id="EMFhbasepattern-0" />
    <pattern
       y="0"
       x="0"
       height="6"
       width="6"
       patternUnits="userSpaceOnUse"
       id="EMFhbasepattern-7" />
    <pattern
       y="0"
       x="0"
       height="6"
       width="6"
       patternUnits="userSpaceOnUse"
       id="EMFhbasepattern-2" />
    <pattern
       y="0"
       x="0"
       height="6"
       width="6"
       patternUnits="userSpaceOnUse"
       id="EMFhbasepattern-98" />
    <pattern
       y="0"
       x="0"
       height="6"
       width="6"
       patternUnits="userSpaceOnUse"
       id="EMFhbasepattern-6" />
    <pattern
       y="0"
       x="0"
       height="6"
       width="6"
       patternUnits="userSpaceOnUse"
       id="EMFhbasepattern-01" />
    <pattern
       y="0"
       x="0"
       height="6"
       width="6"
       patternUnits="userSpaceOnUse"
       id="EMFhbasepattern-07" />
    <pattern
       y="0"
       x="0"
       height="6"
       width="6"
       patternUnits="userSpaceOnUse"
       id="EMFhbasepattern-8" />
    <pattern
       y="0"
       x="0"
       height="6"
       width="6"
       patternUnits="userSpaceOnUse"
       id="EMFhbasepattern-4" />
    <pattern
       y="0"
       x="0"
       height="6"
       width="6"
       patternUnits="userSpaceOnUse"
       id="EMFhbasepattern-40" />
    <pattern
       y="0"
       x="0"
       height="6"
       width="6"
       patternUnits="userSpaceOnUse"
       id="EMFhbasepattern-08" />
    <pattern
       y="0"
       x="0"
       height="6"
       width="6"
       patternUnits="userSpaceOnUse"
       id="EMFhbasepattern-04" />
    <pattern
       y="0"
       x="0"
       height="6"
       width="6"
       patternUnits="userSpaceOnUse"
       id="EMFhbasepattern-014" />
    <pattern
       y="0"
       x="0"
       height="6"
       width="6"
       patternUnits="userSpaceOnUse"
       id="EMFhbasepattern-27" />
    <pattern
       y="0"
       x="0"
       height="6"
       width="6"
       patternUnits="userSpaceOnUse"
       id="EMFhbasepattern-09" />
    <pattern
       y="0"
       x="0"
       height="6"
       width="6"
       patternUnits="userSpaceOnUse"
       id="EMFhbasepattern-5" />
    <pattern
       y="0"
       x="0"
       height="6"
       width="6"
       patternUnits="userSpaceOnUse"
       id="EMFhbasepattern-018" />
  </defs>
  <sodipodi:namedview
     inkscape:document-rotation="0"
     inkscape:snap-global="true"
     inkscape:snap-nodes="false"
     inkscape:bbox-nodes="true"
     inkscape:snap-bbox="true"
     showguides="true"
     inkscape:snap-midpoints="true"
     inkscape:snap-smooth-nodes="true"
     inkscape:snap-intersection-paths="true"
     inkscape:object-paths="true"
     inkscape:showpageshadow="false"
     inkscape:pagecheckerboard="true"
     inkscape:window-maximized="1"
     inkscape:window-y="31"
     inkscape:window-x="0"
     inkscape:window-height="705"
     inkscape:window-width="1366"
     units="pt"
     showgrid="false"
     inkscape:current-layer="layer1"
     inkscape:document-units="pt"
     inkscape:cy="42.525177"
     inkscape:cx="46.892628"
     inkscape:zoom="2.175182"
     inkscape:pageshadow="2"
     inkscape:pageopacity="0.0"
     borderopacity="1.0"
     bordercolor="#666666"
     pagecolor="#ffffff"
     id="base">
    <inkscape:grid
       id="grid1378"
       type="xygrid" />
    <sodipodi:guide
       inkscape:locked="false"
       id="guide1380"
       orientation="78.000048,0"
       position="0.97013831,21.607643" />
    <sodipodi:guide
       inkscape:locked="false"
       id="guide1382"
       orientation="0,78.000005"
       position="0.97013831,0.97013129" />
    <sodipodi:guide
       inkscape:locked="false"
       id="guide1384"
       orientation="-78.000048,0"
       position="21.607639,0.97013129" />
    <sodipodi:guide
       inkscape:locked="false"
       id="guide1386"
       orientation="0,-78.000005"
       position="21.607639,21.607643" />
  </sodipodi:namedview>
  <metadata
     id="metadata828">
    <rdf:RDF>
      <cc:Work
         rdf:about="">
        <dc:format>image/svg+xml</dc:format>
        <dc:type
           rdf:resource="http://purl.org/dc/dcmitype/StillImage" />
      </cc:Work>
    </rdf:RDF>
  </metadata>
  <g
     transform="translate(0,-274.42223)"
     id="layer1"
     inkscape:groupmode="layer"
     inkscape:label="Icon">
    <path
       id="path24804"
       style="color:#000000;display:inline;fill:#000000;stroke-width:1.25803;stroke-linecap:round;stroke-linejoin:round;stroke-miterlimit:1.5;-inkscape-stroke:none"
       d="m 11.289211,275.39236 c -5.6947375,0 -10.31778268,4.62498 -10.31778268,10.31973 0,5.69473 4.62304518,10.31779 10.31778268,10.31779 5.694742,0 10.317138,-4.62306 10.317138,-10.31779 0,-5.69475 -4.622396,-10.31973 -10.317138,-10.31973 z m 0,0.66635 c 5.334968,0 9.653383,4.31841 9.653383,9.65338 0,5.33496 -4.318415,9.65143 -9.653383,9.65143 -5.3349636,0 -9.6514282,-4.31647 -9.6514282,-9.65143 0,-5.33497 4.3164646,-9.65338 9.6514282,-9.65338 z m 0.572091,1.01676 c -0.183242,-0.0113 -0.341487,0.12688 -0.353656,0.31011 -0.01189,0.18299 0.126487,0.34114 0.30945,0.35364 3.957863,0.2587 7.127023,3.39779 7.435228,7.34161 0.01485,0.18334 0.175547,0.31987 0.358859,0.30491 0.183322,-0.0148 0.319865,-0.17554 0.304897,-0.35886 -0.333702,-4.27011 -3.770161,-7.67135 -8.054778,-7.95141 z m -2.651768,0.55779 c -0.040128,6.6e-4 -0.081169,0.003 -0.1222197,0.004 v -6.7e-4 c -0.68108,0.0209 -1.3577164,0.18342 -1.9678621,0.49148 -1.4429566,0.84552 -2.4125101,2.32321 -2.3689729,4.0716 0.023567,0.68103 0.1671752,1.18168 0.024697,1.96526 -0.1270764,0.68063 -0.1627948,1.18742 -0.039008,1.65126 0.1237911,0.46385 0.4056711,0.8388 0.8178326,1.25079 0.004,0.004 0.00813,0.009 0.012354,0.0126 0,0 1.2414509,1.07798 2.9878727,0.48889 0.8970782,-0.3026 1.5790204,-0.99539 2.2604064,-1.59211 0.681389,-0.59671 1.341147,-1.0909 2.14014,-1.15979 1.101554,-0.095 1.868609,-0.29903 2.393028,-0.70276 0.52442,-0.40371 0.739819,-1.01188 0.739819,-1.70002 0,-0.94562 -0.0906,-1.60453 -0.44987,-2.10113 -0.359265,-0.49658 -0.936369,-0.74325 -1.739026,-0.95825 -0.798312,-0.21381 -1.309613,-0.62784 -1.985418,-1.02196 -0.654681,-0.38178 -1.459805,-0.71474 -2.7037754,-0.69821 z m 0.1183186,0.66505 c 1.0593304,10e-4 1.6691504,0.26836 2.2513064,0.60786 0.620963,0.36213 1.211424,0.84021 2.14729,1.09087 0.754924,0.20221 1.149581,0.39921 1.371067,0.70536 0.221487,0.30614 0.324403,0.81081 0.324403,1.71041 0,0.56742 -0.128491,0.89957 -0.481729,1.17149 -0.353233,0.27193 -0.998981,0.47767 -2.041972,0.56754 -1.036257,0.0893 -1.821411,0.71046 -2.523051,1.32491 -0.7016401,0.61444 -1.3419357,1.22576 -2.0348219,1.45948 -1.4259346,0.48099 -2.3120917,-0.34035 -2.3215181,-0.3491 -0.3699891,-0.37135 -0.5566597,-0.63457 -0.6390507,-0.9433 -0.083179,-0.31168 -0.068733,-0.71554 0.051356,-1.35872 0.1653679,-0.90953 0.00609,-1.52181 -0.014313,-2.11088 -0.020238,-0.58589 0.068422,-1.20831 0.7073121,-2.31956 0.3344338,-0.4954 0.7810157,-0.873 1.2950036,-1.13249 0.5169336,-0.26099 1.0994693,-0.40246 1.6876667,-0.42061 h 6.656e-4 c 6.657e-4,0 0.00133,0 0.002,0 0.074742,-0.003 0.1478101,-0.004 0.2184348,-0.004 z m -0.2723928,0.68197 c -1.568765,0 -2.8474522,1.27648 -2.8474522,2.84485 0,1.56835 1.2786872,2.84809 2.8474522,2.84809 1.5687652,0 2.8481012,-1.27974 2.8481012,-2.84809 0,-1.56837 -1.279336,-2.84485 -2.8481012,-2.84485 z m 0,0.66569 c 1.2091312,0 2.1817432,0.97071 2.1817432,2.17916 0,1.20843 -0.972612,2.18174 -2.1817432,2.18174 -1.2091342,0 -2.1817467,-0.97331 -2.1817467,-2.18174 0,-1.20845 0.9726125,-2.17916 2.1817467,-2.17916 z m -5.0896581,1.8398 c -0.1339334,-0.0128 -0.2624578,0.0561 -0.3256998,0.17488 -0.641111,1.2085 -1.0050622,2.58946 -1.0050622,4.05144 3.4e-6,2.24839 0.8581642,4.29978 2.2656122,5.83857 0.123908,0.13711 0.3357918,0.14704 0.4719719,0.0221 0.1363531,-0.12467 0.1451105,-0.33649 0.019506,-0.47197 -1.2998033,-1.42111 -2.0913804,-3.30969 -2.0913838,-5.38871 0,-1.35183 0.3347333,-2.62409 0.9263991,-3.73939 0.086182,-0.16212 0.024797,-0.36341 -0.1371719,-0.44987 -0.038565,-0.0204 -0.080754,-0.033 -0.1241709,-0.037 z m 6.5367853,0.0591 c -0.183069,6.7e-4 -0.331195,0.14914 -0.331551,0.33221 0,0.58434 -0.4675353,1.05122 -1.0518683,1.05122 -0.1838312,6.6e-4 -0.3322702,0.15032 -0.3315512,0.33414 6.657e-4,0.18282 0.1487385,0.33085 0.3315512,0.33155 0.9441033,0 1.7175773,-0.7728 1.7175733,-1.71691 -3.33e-4,-0.18409 -0.15007,-0.33293 -0.334154,-0.33221 z m 4.312134,0.75283 c -0.02477,2.9e-4 -0.04939,0.004 -0.07346,0.009 -0.08615,0.0205 -0.160548,0.0746 -0.206735,0.15018 -0.281267,0.46042 -1.203988,0.63125 -1.203988,0.63125 -0.182375,0.0226 -0.311873,0.18883 -0.289297,0.3712 0.02233,0.18235 0.188188,0.31213 0.370559,0.28995 0,0 1.163567,-0.0806 1.690918,-0.94394 0.09713,-0.15748 0.04719,-0.36395 -0.111172,-0.45962 -0.05328,-0.0322 -0.114543,-0.0489 -0.176828,-0.0481 z m 1.141582,2.48988 c -0.07044,-10e-4 -0.141681,0.005 -0.212583,0.0208 l -1.488738,0.32895 c -0.782436,0.1731 -1.506048,0.59083 -2.047174,1.18189 l -0.537633,0.58965 c -0.446299,0.48746 -1.055357,0.83759 -1.7006716,0.98035 l -0.7788222,0.17228 c -0.7824303,0.1731 -1.5053964,0.59081 -2.0465252,1.18189 l -1.0271636,1.12272 c -0.2615257,0.28565 -0.3093633,0.71127 -0.1157157,1.04667 l 0.8230283,1.42503 c 0.2090182,0.36215 0.7324259,0.41887 1.0148115,0.11058 l 1.0271636,-1.12274 c 0.4462956,-0.48747 1.0553529,-0.84017 1.7006679,-0.98296 l 0.778825,-0.17162 c 0.782437,-0.1731 1.505397,-0.59083 2.046522,-1.18189 l 0.538286,-0.58769 c 0.446299,-0.48748 1.054711,-0.84021 1.700019,-0.98295 l 1.486787,-0.32636 c 0.408283,-0.0903 0.619298,-0.57403 0.410215,-0.93615 l -0.82043,-1.42307 c -0.157332,-0.27251 -0.445619,-0.4377 -0.750869,-0.44532 z m -0.0338,0.66637 c 0.08424,-0.005 0.163171,0.0356 0.206731,0.11121 l 0.801577,1.38537 -1.445177,0.31986 c -0.78245,0.17309 -1.505403,0.59083 -2.046525,1.18187 l -0.538287,0.58705 c -0.446296,0.48747 -1.054704,0.8402 -1.700019,0.98296 l -0.778822,0.17163 c -0.7824402,0.1731 -1.5060488,0.59083 -2.0471743,1.18188 l -0.99726,1.09087 -0.2658928,-0.46157 1.1402803,-1.2456 c 0.4462956,-0.48747 1.0527566,-0.84019 1.6980716,-0.98295 0.1789352,-0.0398 0.2919952,-0.21683 0.2528882,-0.39592 -0.03983,-0.17861 -0.2163909,-0.29158 -0.3952627,-0.25289 -0.7824369,0.17311 -1.5060489,0.59084 -2.0471742,1.18189 l -0.9979092,1.09022 -0.1839777,-0.31854 c -0.049781,-0.0863 -0.037336,-0.1918 0.029891,-0.26525 l 1.0271637,-1.12337 c 0.4462955,-0.48749 1.0546971,-0.83757 1.7000187,-0.98036 l 0.7788254,-0.17422 c 0.782437,-0.1731 1.505396,-0.58823 2.046525,-1.17929 l 0.538282,-0.58965 c 0.446296,-0.48747 1.055357,-0.83759 1.700672,-0.98035 l 1.486134,-0.32961 c 0.0122,-0.003 0.02437,-0.005 0.03641,-0.005 z m 2.437887,0.11058 c -0.05208,-10e-4 -0.105007,0.004 -0.157326,0.015 l -0.127419,0.0299 c -0.178889,0.0395 -0.292206,0.21618 -0.253542,0.39526 0.03978,0.18017 0.218542,0.29362 0.398512,0.25289 l 0.120267,-0.0267 0.882189,1.5284 -1.442577,0.3192 c -0.782443,0.1731 -1.505399,0.59082 -2.046525,1.18189 l -0.538286,0.58703 c -0.446296,0.48749 -1.054694,0.83758 -1.700018,0.98035 l -0.778823,0.17488 c -0.782441,0.17309 -1.506049,0.59082 -2.047174,1.18189 l -0.9972605,1.08828 -0.235986,-0.40567 c -0.091552,-0.15942 -0.2950108,-0.21443 -0.4544239,-0.12291 -0.1584746,0.0925 -0.2122635,0.29569 -0.1202661,0.45441 l 0.3413039,0.59485 c 0.1668724,0.2889 0.5880209,0.33453 0.8132786,0.0884 l 1.144831,-1.2508 c 0.446295,-0.48748 1.052753,-0.83758 1.698068,-0.98035 l 0.781425,-0.17163 c 0.782431,-0.17311 1.505397,-0.59081 2.046522,-1.18189 l 0.538287,-0.58769 c 0.446295,-0.48747 1.052101,-0.83953 1.697419,-0.98231 l 1.653862,-0.36601 c 0.325783,-0.0721 0.498381,-0.46061 0.331554,-0.74957 l -0.99271,-1.71757 c -0.116091,-0.20107 -0.329495,-0.32376 -0.555184,-0.3296 z m -2.459343,0.42321 c -0.0288,-10e-4 -0.05764,9.9e-4 -0.08581,0.008 l -0.943951,0.20868 c -0.782449,0.17309 -1.505399,0.59083 -2.046522,1.18189 l -0.538286,0.58769 c -0.223204,0.24374 -0.487822,0.455 -0.776222,0.6215 -0.158475,0.0925 -0.212267,0.29569 -0.12027,0.45442 0.09155,0.15942 0.295007,0.21443 0.45442,0.12291 0.346187,-0.19987 0.660393,-0.45412 0.930949,-0.74957 l 0.540886,-0.58704 c 0.446296,-0.48747 1.052109,-0.83761 1.69742,-0.98036 l 0.943947,-0.20868 c 0.180187,-0.0397 0.29363,-0.21854 0.252892,-0.39852 -0.03268,-0.14656 -0.159453,-0.25307 -0.30945,-0.26003 z m 2.878657,3.06199 c -0.134872,-0.009 -0.261781,0.0645 -0.321149,0.18592 -1.302037,2.6438 -4.019806,4.46491 -7.169339,4.46491 -0.183069,3.4e-4 -0.331489,0.14849 -0.332201,0.33155 -6.66e-4,0.18409 0.148116,0.3338 0.332201,0.33416 3.406139,0 6.358389,-1.97045 7.769382,-4.83546 0.08214,-0.16565 0.01355,-0.36649 -0.152772,-0.44728 -0.0394,-0.0195 -0.08226,-0.0309 -0.126122,-0.0338 z"
       sodipodi:nodetypes="sssssssssscccccccccccccsccsssssscscccscssscsccscccscscccssssssssssccscccscccsccsccsscccccccssccccccccccccccccccccccscccccccccccccccccccccccccssccccccccccccccccccccccccccccccsccccccccccccsscccscccc" />
  </g>
</svg>
