<?xml version="1.0" encoding="UTF-8" standalone="no"?>
<svg
   xmlns:dc="http://purl.org/dc/elements/1.1/"
   xmlns:cc="http://creativecommons.org/ns#"
   xmlns:rdf="http://www.w3.org/1999/02/22-rdf-syntax-ns#"
   xmlns:svg="http://www.w3.org/2000/svg"
   xmlns="http://www.w3.org/2000/svg"
   xmlns:sodipodi="http://sodipodi.sourceforge.net/DTD/sodipodi-0.dtd"
   xmlns:inkscape="http://www.inkscape.org/namespaces/inkscape"
   inkscape:export-ydpi="576"
   inkscape:export-xdpi="576"
   inkscape:export-filename="D:\Project Real\November\export\line,extended\png\9 - Steak.png"
   width="64pt"
   height="64pt"
   viewBox="0 0 22.577778 22.577778"
   version="1.1"
   id="svg831"
   inkscape:version="1.0 (4035a4fb49, 2020-05-01)"
   sodipodi:docname="10 - Fried rice.svg">
  <defs
     id="defs825">
    <pattern
       id="EMFhbasepattern"
       patternUnits="userSpaceOnUse"
       width="6"
       height="6"
       x="0"
       y="0" />
    <pattern
       id="EMFhbasepattern-9"
       patternUnits="userSpaceOnUse"
       width="6"
       height="6"
       x="0"
       y="0" />
    <pattern
       id="EMFhbasepattern-0"
       patternUnits="userSpaceOnUse"
       width="6"
       height="6"
       x="0"
       y="0" />
    <pattern
       id="EMFhbasepattern-7"
       patternUnits="userSpaceOnUse"
       width="6"
       height="6"
       x="0"
       y="0" />
    <pattern
       id="EMFhbasepattern-2"
       patternUnits="userSpaceOnUse"
       width="6"
       height="6"
       x="0"
       y="0" />
    <pattern
       id="EMFhbasepattern-98"
       patternUnits="userSpaceOnUse"
       width="6"
       height="6"
       x="0"
       y="0" />
    <pattern
       id="EMFhbasepattern-6"
       patternUnits="userSpaceOnUse"
       width="6"
       height="6"
       x="0"
       y="0" />
    <pattern
       id="EMFhbasepattern-01"
       patternUnits="userSpaceOnUse"
       width="6"
       height="6"
       x="0"
       y="0" />
    <pattern
       id="EMFhbasepattern-07"
       patternUnits="userSpaceOnUse"
       width="6"
       height="6"
       x="0"
       y="0" />
    <pattern
       id="EMFhbasepattern-8"
       patternUnits="userSpaceOnUse"
       width="6"
       height="6"
       x="0"
       y="0" />
    <pattern
       id="EMFhbasepattern-4"
       patternUnits="userSpaceOnUse"
       width="6"
       height="6"
       x="0"
       y="0" />
    <pattern
       id="EMFhbasepattern-40"
       patternUnits="userSpaceOnUse"
       width="6"
       height="6"
       x="0"
       y="0" />
    <pattern
       id="EMFhbasepattern-08"
       patternUnits="userSpaceOnUse"
       width="6"
       height="6"
       x="0"
       y="0" />
    <pattern
       id="EMFhbasepattern-04"
       patternUnits="userSpaceOnUse"
       width="6"
       height="6"
       x="0"
       y="0" />
    <pattern
       id="EMFhbasepattern-014"
       patternUnits="userSpaceOnUse"
       width="6"
       height="6"
       x="0"
       y="0" />
    <pattern
       id="EMFhbasepattern-27"
       patternUnits="userSpaceOnUse"
       width="6"
       height="6"
       x="0"
       y="0" />
    <pattern
       id="EMFhbasepattern-09"
       patternUnits="userSpaceOnUse"
       width="6"
       height="6"
       x="0"
       y="0" />
    <pattern
       id="EMFhbasepattern-5"
       patternUnits="userSpaceOnUse"
       width="6"
       height="6"
       x="0"
       y="0" />
    <pattern
       id="EMFhbasepattern-018"
       patternUnits="userSpaceOnUse"
       width="6"
       height="6"
       x="0"
       y="0" />
  </defs>
  <sodipodi:namedview
     id="base"
     pagecolor="#ffffff"
     bordercolor="#666666"
     borderopacity="1.0"
     inkscape:pageopacity="0.0"
     inkscape:pageshadow="2"
     inkscape:zoom="6.2578125"
     inkscape:cx="42.666667"
     inkscape:cy="42.666667"
     inkscape:document-units="pt"
     inkscape:current-layer="layer1"
     showgrid="false"
     units="pt"
     inkscape:window-width="1366"
     inkscape:window-height="706"
     inkscape:window-x="-8"
     inkscape:window-y="-8"
     inkscape:window-maximized="1"
     inkscape:pagecheckerboard="true"
     inkscape:showpageshadow="false"
     inkscape:object-paths="true"
     inkscape:snap-intersection-paths="true"
     inkscape:snap-smooth-nodes="true"
     inkscape:snap-midpoints="true"
     showguides="true"
     inkscape:snap-bbox="true"
     inkscape:bbox-nodes="true"
     inkscape:snap-nodes="false"
     inkscape:snap-global="true"
     inkscape:document-rotation="0">
    <inkscape:grid
       type="xygrid"
       id="grid1378" />
    <sodipodi:guide
       position="0.97013831,21.607643"
       orientation="78.000048,0"
       id="guide1380"
       inkscape:locked="false" />
    <sodipodi:guide
       position="0.97013831,0.97013129"
       orientation="0,78.000005"
       id="guide1382"
       inkscape:locked="false" />
    <sodipodi:guide
       position="21.607639,0.97013129"
       orientation="-78.000048,0"
       id="guide1384"
       inkscape:locked="false" />
    <sodipodi:guide
       position="21.607639,21.607643"
       orientation="0,-78.000005"
       id="guide1386"
       inkscape:locked="false" />
  </sodipodi:namedview>
  <metadata
     id="metadata828">
    <rdf:RDF>
      <cc:Work
         rdf:about="">
        <dc:format>image/svg+xml</dc:format>
        <dc:type
           rdf:resource="http://purl.org/dc/dcmitype/StillImage" />
        <dc:title></dc:title>
      </cc:Work>
    </rdf:RDF>
  </metadata>
  <g
     inkscape:label="Icon"
     inkscape:groupmode="layer"
     id="layer1"
     transform="translate(0,-274.42223)">
    <path
       id="path1031"
       style="color:#000000;font-style:normal;font-variant:normal;font-weight:normal;font-stretch:normal;font-size:medium;line-height:normal;font-family:sans-serif;font-variant-ligatures:normal;font-variant-position:normal;font-variant-caps:normal;font-variant-numeric:normal;font-variant-alternates:normal;font-variant-east-asian:normal;font-feature-settings:normal;font-variation-settings:normal;text-indent:0;text-align:start;text-decoration:none;text-decoration-line:none;text-decoration-style:solid;text-decoration-color:#000000;letter-spacing:normal;word-spacing:normal;text-transform:none;writing-mode:lr-tb;direction:ltr;text-orientation:mixed;dominant-baseline:auto;baseline-shift:baseline;text-anchor:start;white-space:normal;shape-padding:0;shape-margin:0;inline-size:0;clip-rule:nonzero;display:inline;overflow:visible;visibility:visible;opacity:1;isolation:auto;mix-blend-mode:normal;color-interpolation:sRGB;color-interpolation-filters:linearRGB;solid-color:#000000;solid-opacity:1;vector-effect:none;fill:#000000;fill-opacity:1;fill-rule:nonzero;stroke:none;stroke-width:0.529167;stroke-linecap:round;stroke-linejoin:round;stroke-miterlimit:1.5;stroke-dasharray:none;stroke-dashoffset:0;stroke-opacity:1;color-rendering:auto;image-rendering:auto;shape-rendering:auto;text-rendering:auto;enable-background:accumulate;stop-color:#000000;stop-opacity:1"
       d="m 11.290189,275.39236 c -5.6949442,0 -10.32005116,4.62251 -10.32005116,10.31745 0,5.69495 4.62510696,10.32006 10.32005116,10.32006 5.694947,0 10.31745,-4.62511 10.31745,-10.32006 0,-5.69494 -4.622503,-10.31745 -10.31745,-10.31745 z m 0,0.66573 c 5.335162,0 9.651725,4.31656 9.651725,9.65172 0,5.33517 -4.316563,9.65433 -9.651725,9.65433 -5.3351593,0 -9.6543253,-4.31916 -9.6543253,-9.65433 0,-5.33516 4.319166,-9.65172 9.6543253,-9.65172 z m -3.0887374,3.12319 c -0.2269659,0.003 -0.4567845,0.0595 -0.6858774,0.14497 -0.4581924,0.171 -0.9153097,0.46087 -1.2501865,0.79576 -0.2312764,0.23127 -0.4365929,0.52226 -0.6007144,0.83021 -0.447118,0.17232 -0.8935073,0.45272 -1.2202821,0.77949 -0.3348834,0.3349 -0.6228098,0.792 -0.7937981,1.25019 -0.085499,0.22911 -0.1420393,0.45891 -0.1449785,0.68587 -0.00267,0.20207 0.046824,0.4163 0.1839834,0.58902 -0.1507969,0.22849 -0.2805237,0.47468 -0.3731693,0.72293 -0.085496,0.22911 -0.142036,0.45892 -0.1449785,0.68588 -0.00299,0.22697 0.052689,0.47267 0.2333968,0.65338 0.180708,0.18071 0.4270564,0.23634 0.6540224,0.2334 0.1977339,-0.003 0.3971786,-0.0507 0.5968132,-0.11826 -0.2644097,0.58416 -0.4154295,1.23008 -0.4154295,1.91201 0,1.79293 1.0198387,3.35085 2.5081753,4.13022 1.2634811,0.77337 2.7491381,1.22158 4.3376196,1.22158 4.591945,0 8.320272,-3.72768 8.320272,-8.31962 0,-0.84547 -0.12402,-1.66315 -0.358867,-2.43275 l -0.0014,6.6e-4 c -0.191489,-1.65874 -1.463403,-3.19856 -3.414444,-3.26622 -0.181208,-0.006 -0.344111,0.0424 -0.486943,0.12354 -0.03623,-0.0915 -0.07678,-0.18091 -0.124825,-0.26591 -0.241516,-0.42726 -0.66065,-0.78127 -1.236537,-0.79476 -0.775671,0.1214 -1.15036,5.9e-4 -1.483581,-0.17392 l 3.4e-5,-10e-6 c -0.333219,-0.17451 -0.63185,-0.4566 -1.11561,-0.58186 -0.237059,-0.0614 -0.461391,-0.0942 -0.671578,-0.0989 -0.350308,-0.008 -0.6610185,0.0625 -0.9231747,0.20674 -0.4194439,0.23076 -0.6838468,0.63955 -0.8227306,1.16795 -0.1803018,-0.0425 -0.378262,-0.084 -0.5652844,-0.0817 z m 2.1571114,-0.62412 c 0.181736,-0.0126 0.39865,0.009 0.658575,0.0761 0.293366,0.076 0.550176,0.3044 0.973232,0.52594 0.277378,0.14526 0.771986,0.13411 1.216381,0.15929 -0.289917,0.54735 -0.590774,1.07501 -0.980385,1.32235 -0.498964,0.31675 -1.073882,0.40462 -1.808644,0.19633 -0.298455,-0.0847 -0.605144,-0.31278 -0.7983476,-0.59486 -0.1932069,-0.28209 -0.2702248,-0.59835 -0.1943886,-0.87701 0.089684,-0.32953 0.2485987,-0.55446 0.4862928,-0.68523 0.1188474,-0.0654 0.2655474,-0.11071 0.4472844,-0.12292 z m 3.632886,0.88547 c 0.172876,0.064 0.328653,0.2091 0.448587,0.42127 0.164833,0.29161 0.226163,0.68188 0.147577,0.97064 -0.167377,0.61501 -0.776802,0.96561 -1.373708,0.7964 -0.343415,-0.0974 -0.590453,-0.22409 -0.688484,-0.39853 0.652108,-0.40951 1.114159,-1.01908 1.466028,-1.78978 z m -5.6723204,1.07725 c -0.1333182,0.35724 -0.3909442,0.76477 -0.6410208,1.01484 -0.1147216,0.11474 -0.2655646,0.22948 -0.4264806,0.33481 0.012815,-0.0912 0.020904,-0.18238 0.016244,-0.27305 -0.010316,-0.19945 -0.074528,-0.4113 -0.2333935,-0.57015 -0.1355318,-0.13553 -0.3077018,-0.20076 -0.48109,-0.22365 0.06071,-0.0771 0.121997,-0.14995 0.1833342,-0.21129 0.2500699,-0.25008 0.655001,-0.5077 1.0122428,-0.64102 0.1786209,-0.0667 0.4266404,-0.18164 0.6476713,-0.0762 0.1039828,0.2223 -0.010857,0.46709 -0.077507,0.64571 z m 7.2878784,-0.17423 c 1.754363,0.0608 2.801377,1.53787 2.801377,3.03477 0,1.43834 -1.295346,2.92934 -2.811131,3.02957 -0.142638,0.0101 -0.314009,-0.18051 -0.314009,-0.37122 v -5.31735 c 0,-0.19101 0.170539,-0.38108 0.323763,-0.37577 z m -5.8329045,0.92382 c -0.2204386,0.14279 -0.397678,0.34373 -0.5207474,0.57732 -0.2052401,0.38954 -0.1748662,0.83482 -0.020172,1.20922 0.1142184,0.27641 0.2960516,0.5254 0.5285496,0.71448 -0.2791188,-0.0523 -0.5659868,-0.0832 -0.8601111,-0.0832 -0.7374178,0 -1.4325588,0.17701 -2.0530884,0.48304 0.048841,-0.16562 0.08499,-0.3313 0.087117,-0.49539 0.00267,-0.20215 -0.04667,-0.41473 -0.1839867,-0.58706 0.065597,-0.0994 0.1266544,-0.2024 0.1826852,-0.30751 0.4459199,-0.17201 0.8873892,-0.45051 1.2131289,-0.77625 0.3348801,-0.33488 0.6247604,-0.79264 0.8584968,-1.31812 0.2452866,0.19922 0.4901106,0.42025 0.7681278,0.58349 z m 6.6143495,0.16253 c -0.08429,0.004 -0.164225,0.0383 -0.223641,0.0981 l -0.235344,0.2334 c -0.130825,0.13013 -0.130825,0.34185 0,0.47199 0.130059,0.13038 0.341278,0.13038 0.471337,0 l 0.235996,-0.236 c 0.129095,-0.12984 0.129095,-0.33956 0,-0.46939 -0.06546,-0.0659 -0.155493,-0.10152 -0.248348,-0.0981 z m -9.84546,0.57211 c -0.07597,0.25043 -0.2262702,0.53996 -0.4004739,0.7899 -0.031322,-0.003 -0.062781,-0.006 -0.093621,-0.006 -0.2269658,0.003 -0.456132,0.0595 -0.6852282,0.14498 -0.433544,0.1618 -0.8633,0.43163 -1.192325,0.74374 0.00166,-0.11536 0.036821,-0.2826 0.1033701,-0.46094 0.133315,-0.35724 0.3915833,-0.7628 0.6416698,-1.01289 0.2500766,-0.25007 0.655001,-0.5103 1.0122428,-0.64362 0.1786176,-0.0667 0.3462075,-0.13915 0.5672317,-0.0545 0.1103046,0.17584 0.092529,0.34951 0.047133,0.4992 z m 3.904638,-0.2789 c 0.170612,-0.0101 0.388518,0.0333 0.667677,0.17359 0.198845,0.0999 0.356765,0.31388 0.656621,0.56235 0.173389,0.14367 0.542011,0.20006 0.832811,0.29776 -0.286782,0.31211 -0.574899,0.64604 -0.877018,0.75413 -0.424047,0.15171 -0.864299,0.12617 -1.388661,-0.15212 -0.202713,-0.10757 -0.3946716,-0.32609 -0.4914947,-0.56041 -0.096823,-0.23431 -0.1004917,-0.46451 -0.00716,-0.64167 0.1182228,-0.22439 0.2645287,-0.35349 0.4518337,-0.40763 0.04683,-0.0136 0.09851,-0.0226 0.15538,-0.026 z m 4.171839,0.21259 v 4.10097 c 0,0.54965 0.427575,1.07371 1.021992,1.03434 1.36288,-0.0901 2.526427,-1.00672 3.082235,-2.18635 0.01044,0.16264 0.01883,0.32619 0.01883,0.49149 0,4.23215 -3.424341,7.6539 -7.656498,7.6539 -0.441216,0 -0.871921,-0.0411 -1.2924458,-0.11247 2.1439638,-0.41771 3.7668168,-2.30905 3.7668128,-4.57362 0,-1.26125 -0.505402,-2.40462 -1.321699,-3.24412 0.691507,0.26392 1.494077,-0.0213 1.84765,-0.69237 0.200304,-0.38019 0.213231,-0.82736 0.08842,-1.22354 -0.119604,-0.37967 -0.396646,-0.73667 -0.837356,-0.85686 0.458342,0.046 0.921833,-0.10216 1.282041,-0.39137 z m 1.830745,1.10846 c -0.184851,-7.4e-4 -0.334883,0.14931 -0.334161,0.33416 6.66e-4,0.18384 0.150328,0.33228 0.334161,0.33156 h 0.331566 c 0.183833,7.3e-4 0.333445,-0.14772 0.334161,-0.33156 6.65e-4,-0.18485 -0.14931,-0.33489 -0.334161,-0.33416 z m -3.119941,0.0113 c 0.08866,0.0725 0.161196,0.18156 0.20804,0.33026 0.0738,0.23426 0.05666,0.526 -0.0416,0.71253 -0.214896,0.40788 -0.707587,0.55909 -1.113007,0.34392 -0.19337,-0.10266 -0.333803,-0.20661 -0.429085,-0.3049 0.522542,-0.18734 0.976851,-0.57195 1.37566,-1.08181 z m -9.3897231,2.1558 c 0.133315,-0.35724 0.3915867,-0.76214 0.6416732,-1.01224 0.2500766,-0.25006 0.6575973,-0.5103 1.0148391,-0.64362 0.178621,-0.0667 0.3835013,-0.18165 0.6058271,-0.0762 0.1056146,0.22233 0.030324,0.46775 -0.036319,0.64637 -0.1333183,0.35724 -0.3909441,0.76476 -0.6410207,1.01484 -0.2500832,0.25008 -0.6576007,0.50771 -1.0148424,0.64102 -0.1786177,0.0667 -0.3642053,0.14177 -0.5865311,0.0376 -0.1056146,-0.22102 -0.050282,-0.42915 0.016376,-0.60777 z m 4.9610888,-0.86011 c 2.2099593,0 3.9956563,1.78309 3.9956523,3.99306 4e-6,2.20995 -1.785693,3.99565 -3.9956523,3.99565 -0.6552007,0 -1.2713432,-0.16043 -1.8164429,-0.43883 -0.040323,-0.0248 -0.082401,-0.0467 -0.1222235,-0.0722 l -0.00455,0.008 C 5.733723,291.1571 4.906632,289.85097 4.906632,288.34712 c 0,-1.05667 0.4109658,-2.01276 1.1237385,-2.77538 0.767775,-0.77138 1.7662871,-1.21768 2.8712689,-1.21768 z m 7.2534193,0.0741 c -0.08497,0.003 -0.165689,0.0379 -0.225591,0.0981 -0.129095,0.12984 -0.129095,0.33956 0,0.4694 l 0.235344,0.23598 c 0.130133,0.13083 0.341858,0.13083 0.471989,0 0.129095,-0.12983 0.129095,-0.33955 0,-0.46938 l -0.235996,-0.23623 c -0.06483,-0.0653 -0.153782,-0.10077 -0.245746,-0.0981 z m -6.5876934,2.25528 c -1.2829036,0 -2.3293914,1.04648 -2.3293914,2.32938 0,1.28292 1.0464878,2.3294 2.3293914,2.3294 1.2828994,0 2.3293874,-1.04648 2.3293874,-2.3294 0,-1.2829 -1.046488,-2.32938 -2.3293874,-2.32938 z m 8.0329184,0.37382 c -0.08484,0.001 -0.165769,0.036 -0.226244,0.0956 l -0.47199,0.47198 c -0.129093,0.12985 -0.129093,0.33957 0,0.4694 0.130133,0.13083 0.341857,0.13083 0.47199,0 l 0.471989,-0.4694 c 0.130826,-0.13013 0.130826,-0.34185 0,-0.47198 -0.06527,-0.0643 -0.154168,-0.0989 -0.245745,-0.0956 z M 9.5673646,287.349 c 0.9231154,0 1.6636614,0.7399 1.6636614,1.66301 0,0.92312 -0.740546,1.66367 -1.6636614,1.66367 -0.9231187,0 -1.6630165,-0.74055 -1.6630165,-1.66367 0,-0.92311 0.7398978,-1.66301 1.6630165,-1.66301 z m 4.9883944,0.29711 c -0.08484,10e-4 -0.165769,0.0361 -0.226244,0.0956 -0.130825,0.13013 -0.130825,0.34185 0,0.47199 l 0.471989,0.46938 c 0.129838,0.12909 0.339551,0.12909 0.469387,0 0.129095,-0.12983 0.129095,-0.33955 0,-0.46938 l -0.469387,-0.47199 c -0.06527,-0.0643 -0.154168,-0.0989 -0.245745,-0.0956 z m 1.589549,0.88677 c -0.184851,-7.3e-4 -0.334886,0.14931 -0.334164,0.33417 v 0.66637 c 6.67e-4,0.18384 0.150329,0.33228 0.334164,0.33156 0.182822,-7e-4 0.33085,-0.14874 0.331562,-0.33156 v -0.66637 c 6.66e-4,-0.18384 -0.147728,-0.33345 -0.331562,-0.33417 z m -1.928917,0.89197 c -0.184086,-7.3e-4 -0.333801,0.14812 -0.334161,0.33221 -6.65e-4,0.18485 0.14931,0.33489 0.334161,0.33416 h 0.665726 c 0.18409,-3.7e-4 0.332933,-0.15008 0.332214,-0.33416 -3.33e-4,-0.18333 -0.148886,-0.33186 -0.332214,-0.33221 z m -0.343913,1.43742 c -0.0853,0.003 -0.166285,0.0381 -0.226244,0.0988 l -0.471338,0.4694 c -0.130392,0.13006 -0.130392,0.34127 0,0.47133 0.13006,0.13039 0.341278,0.13039 0.471338,0 l 0.471989,-0.47133 c 0.129095,-0.12983 0.129095,-0.33955 0,-0.4694 -0.06471,-0.0655 -0.153685,-0.10127 -0.245745,-0.0988 z"
       sodipodi:nodetypes="ssssssssssccscssccsssscscssccscscssssscccscssssssccsscccsccscscccscssccsccscsccssccccsccccccscssccsssccssssscsccsscscsscccsccsccsscsccsssssssccccssscccscccccccccsssscccccccccssssccccscccsccsccscccccccccccccccccccccccc" />
  </g>
</svg>
