<svg id="expandedicons" xmlns="http://www.w3.org/2000/svg" viewBox="0 0 64 64"><path d="M51.9067,38.8643a1,1,0,0,1-.9365-1.3506l.961-2.5635a1,1,0,1,1,1.873.7012l-.9609,2.5634A1,1,0,0,1,51.9067,38.8643Z"/><path d="M32,63A31,31,0,1,1,63,32,31.035,31.035,0,0,1,32,63ZM32,3A29,29,0,1,0,61,32,29.0331,29.0331,0,0,0,32,3Z"/><path d="M32,39.4492A7.4492,7.4492,0,1,1,39.4487,32,7.4573,7.4573,0,0,1,32,39.4492Zm0-12.8984A5.4492,5.4492,0,1,0,37.4487,32,5.455,5.455,0,0,0,32,26.5508Z"/><path d="M24.2734,22.1729a1,1,0,0,1-1-.9971l-.0073-2.7383a1,1,0,0,1,.9976-1.0029h.0024a1,1,0,0,1,1,.997l.0073,2.7383a1,1,0,0,1-.9975,1.003Z"/><path d="M19.6406,13.5918a1.0059,1.0059,0,0,1-.351-.0635l-2.5635-.9609a1,1,0,0,1,.7021-1.8731l2.5635.961a1,1,0,0,1-.3511,1.9365Z"/><path d="M29.8823,12.1094a1,1,0,0,1-.9629-.7324l-.7339-2.6377a1,1,0,1,1,1.9268-.5352l.7339,2.6377a1,1,0,0,1-.6953,1.2314A1.0184,1.0184,0,0,1,29.8823,12.1094Z"/><path d="M38.1675,19.61a1,1,0,0,1-.4649-1.8858l2.4248-1.2695a1,1,0,1,1,.9278,1.7715L38.63,19.4961A.9885.9885,0,0,1,38.1675,19.61Z"/><path d="M38.45,10.1074a1,1,0,0,1-.4648-1.8857L40.41,6.9512a1,1,0,1,1,.9277,1.7715L38.9126,9.9932A.9881.9881,0,0,1,38.45,10.1074Z"/><path d="M52.3872,20.0918a1.0068,1.0068,0,0,1-.3511-.0635l-2.5639-.9619a1,1,0,0,1,.7026-1.873l2.564.9619a1,1,0,0,1-.3516,1.9365Z"/><path d="M47.1987,30.1875a1.0059,1.0059,0,0,1-.351-.0635l-2.5635-.9609a1,1,0,0,1,.7021-1.8731l2.5635.961a1,1,0,0,1-.3511,1.9365Z"/><path d="M13.2026,24.8115a1,1,0,0,1-.9531-.6992l-.8242-2.61A1,1,0,0,1,13.3325,20.9l.8242,2.61a.9991.9991,0,0,1-.6523,1.2539A.98.98,0,0,1,13.2026,24.8115Z"/><path d="M7.6851,34.3057a1,1,0,0,1-.9532-.6993l-.8242-2.6113a1,1,0,1,1,1.9072-.6015l.8243,2.6113a.9989.9989,0,0,1-.9541,1.3008Z"/><path d="M17.0771,32.0635A1.0059,1.0059,0,0,1,16.7261,32l-2.564-.9619a1,1,0,0,1,.7026-1.8731l2.564.962a1,1,0,0,1-.3516,1.9365Z"/><path d="M31.8638,52.8164c-3.042,0-4.3584-3.542-5.6314-6.9678-1.0346-2.7841-2.1045-5.664-3.7563-5.664-1.6011,0-2.5415,1.6845-3.7935,4.2539-1.228,2.5205-2.62,5.3779-5.5908,5.3779-2.9194,0-4.5225-2.74-5.9375-5.1582C5.9,42.5146,4.7158,40.49,2.9438,40.49a1,1,0,0,1,0-2c2.919,0,4.522,2.74,5.9371,5.1582,1.2539,2.1436,2.4384,4.168,4.2109,4.168,1.6011,0,2.541-1.6846,3.793-4.2539,1.228-2.52,2.62-5.3779,5.5913-5.3779,3.042,0,4.3584,3.542,5.6313,6.9677,1.0347,2.7842,2.1045,5.6641,3.7564,5.6641s2.7207-2.88,3.7549-5.6641c1.2724-3.4257,2.5883-6.9677,5.63-6.9677,2.9419,0,4.34,2.57,5.5738,4.8379,1.2841,2.36,2.1816,3.7939,3.8173,3.7939,1.815,0,3.0787-1.8818,4.417-3.874,1.4986-2.23,3.1968-4.7578,6.0772-4.7578a1,1,0,0,1,0,2c-1.815,0-3.0786,1.8818-4.417,3.874-1.4985,2.23-3.1968,4.7578-6.0772,4.7578-2.9423,0-4.3408-2.57-5.5742-4.8379-1.2842-2.36-2.1816-3.7939-3.8169-3.7939-1.6508,0-2.7207,2.88-3.7548,5.664C36.2212,49.2744,34.9053,52.8164,31.8638,52.8164Z"/></svg>