<?xml version="1.0" ?><svg enable-background="new 0 0 100 100" id="Layer_1" version="1.1" viewBox="0 0 100 100" xml:space="preserve" xmlns="http://www.w3.org/2000/svg" xmlns:xlink="http://www.w3.org/1999/xlink"><g><path d="M42.497,25.672v-12.52h0.356c0.541,0,0.978-0.438,0.978-0.978V5.978c0-0.54-0.438-0.978-0.978-0.978H24.885   c-0.541,0-0.978,0.438-0.978,0.978v6.196c0,0.54,0.438,0.978,0.978,0.978h0.356v12.52c0,4.733-1.686,9.326-4.747,12.934   c-3.361,3.961-5.212,9.004-5.212,14.2v0.291v28.37v8.071c0,3.012,2.45,5.462,5.462,5.462h26.251c3.011,0,5.462-2.45,5.462-5.462   v-8.071v-28.37v-0.291c0-5.196-1.851-10.239-5.212-14.2C44.183,34.998,42.497,30.405,42.497,25.672z M25.864,6.957h16.011v4.239   h-0.356H26.22h-0.356V6.957z M21.987,39.872c3.361-3.961,5.211-9.004,5.211-14.2v-12.52H40.54v12.52   c0,5.196,1.85,10.239,5.211,14.2c2.913,3.432,4.562,7.759,4.717,12.247h-33.2C17.425,47.631,19.074,43.304,21.987,39.872z    M17.239,54.076H50.5v26.413H17.239V54.076z M46.995,93.043H20.744c-1.933,0-3.505-1.572-3.505-3.506v-7.092H50.5v7.092   C50.5,91.471,48.927,93.043,46.995,93.043z"/><path d="M39.033,65.729c0.429-0.812,0.675-1.736,0.675-2.716c0-3.219-2.62-5.839-5.839-5.839s-5.839,2.619-5.839,5.839   c0,0.981,0.246,1.904,0.675,2.716c-3.081,0.156-5.541,2.705-5.541,5.824c0,3.219,2.619,5.839,5.838,5.839   c2.031,0,3.821-1.043,4.867-2.621c1.047,1.577,2.837,2.621,4.867,2.621c3.219,0,5.838-2.619,5.838-5.839   C44.575,68.434,42.115,65.885,39.033,65.729z M33.869,59.131c2.141,0,3.882,1.742,3.882,3.882c0,2.14-1.742,3.882-3.882,3.882   s-3.882-1.742-3.882-3.882C29.987,60.872,31.728,59.131,33.869,59.131z M29.002,75.435c-2.14,0-3.882-1.742-3.882-3.882   c0-2.141,1.742-3.882,3.882-3.882c2.141,0,3.882,1.742,3.882,3.882C32.884,73.693,31.143,75.435,29.002,75.435z M38.737,75.435   c-2.141,0-3.882-1.742-3.882-3.882c0-2.141,1.742-3.882,3.882-3.882c2.14,0,3.882,1.742,3.882,3.882   C42.618,73.693,40.877,75.435,38.737,75.435z"/><path d="M83.739,70.575h-3.766H62.355h-3.766c-0.541,0-0.978,0.438-0.978,0.978v20.146c0,1.82,1.481,3.302,3.302,3.302h20.503   c1.821,0,3.302-1.481,3.302-3.302V71.553C84.718,71.013,84.28,70.575,83.739,70.575z M63.334,81.193   c0.966-0.519,3.684-1.581,7.383,0.324c2.347,1.208,4.396,1.565,6.001,1.565c0.917,0,1.679-0.118,2.278-0.26v5.942H63.334V81.193z    M78.995,72.531v8.271c-1.083,0.347-3.759,0.84-7.384-1.025c-3.659-1.883-6.592-1.371-8.278-0.725v-6.522H78.995z M82.761,91.698   c0,0.742-0.604,1.345-1.345,1.345H60.913c-0.741,0-1.345-0.603-1.345-1.345V72.531h1.809v17.211c0,0.54,0.438,0.978,0.978,0.978   h17.618c0.541,0,0.978-0.438,0.978-0.978V72.531h1.809V91.698z"/></g></svg>