<svg id="Layer_1" data-name="Layer 1" xmlns="http://www.w3.org/2000/svg" viewBox="0 0 64 64"><path d="M20.62,53.44C9.94,53.44,1.25,46.87,1.25,38.8c0-4.46,2.62-8.61,7.18-11.4.07,0,7.6-4.88,9.9-8.86.05-.13.83-1.91,2.29-1.82,1.41-.09,2.23,1.69,2.32,1.9,2.65,4.55,9.77,8.73,9.85,8.77,4.58,2.8,7.2,7,7.2,11.41C40,46.87,31.3,53.44,20.62,53.44Zm-.09-35.22c-.23,0-.66.54-.87,1-2.51,4.37-10.11,9.25-10.43,9.45C5.11,31.19,2.75,34.88,2.75,38.8c0,7.24,8,13.14,17.87,13.14S38.49,46,38.49,38.8c0-3.92-2.36-7.61-6.47-10.12-.29-.17-7.53-4.41-10.41-9.39-.25-.54-.66-1.12-.92-1.07h-.16Z"/><path d="M8,36.2a.8.8,0,0,1-.3-.06.76.76,0,0,1-.39-1,12.92,12.92,0,0,1,5.19-5.3,15.13,15.13,0,0,0,5.24-5.78.74.74,0,0,1,1-.36.75.75,0,0,1,.36,1,16.34,16.34,0,0,1-5.83,6.44,11.58,11.58,0,0,0-4.58,4.61A.76.76,0,0,1,8,36.2Z"/><path d="M32.87,34.91a.74.74,0,0,1-.64-.36,13.94,13.94,0,0,0-4.69-4,15,15,0,0,1-5.64-5.86.75.75,0,1,1,1.35-.65,13.81,13.81,0,0,0,5.05,5.21,15.1,15.1,0,0,1,5.22,4.51.75.75,0,0,1-.65,1.13Z"/><path d="M15.31,38.9l-.18,0a.76.76,0,0,1-.55-.91,49,49,0,0,1,4.58-11.28.75.75,0,0,1,1.3.76A48.09,48.09,0,0,0,16,38.33.76.76,0,0,1,15.31,38.9Z"/><path d="M25.73,36.2a.76.76,0,0,1-.74-.64c-.55-3.57-3.7-8-3.73-8.06a.75.75,0,0,1,1.22-.87c.14.19,3.39,4.78,4,8.71a.75.75,0,0,1-.63.85Z"/><path d="M43.37,47.28a24.82,24.82,0,0,1-6.75-.91.75.75,0,0,1-.52-.93.74.74,0,0,1,.92-.51,23.9,23.9,0,0,0,6.35.85c9.86,0,17.88-5.89,17.88-13.14,0-3.92-2.36-7.6-6.47-10.11-.33-.21-7.75-5-10.41-9.38l0-.09c-.21-.47-.64-1-.89-1h-.15c-.24,0-.66.54-.87,1C39.91,17.43,32.31,22.31,32,22.52a15.22,15.22,0,0,0-3.46,2.95.77.77,0,0,1-1.06.06.75.75,0,0,1-.06-1.06,16.61,16.61,0,0,1,3.79-3.22c.06,0,7.6-4.88,9.89-8.86.06-.13.83-1.92,2.29-1.82,1.35-.09,2.14,1.49,2.31,1.84,2.5,4.05,9.82,8.8,9.89,8.85,4.56,2.78,7.18,6.93,7.18,11.38C62.75,40.71,54.06,47.28,43.37,47.28Z"/><path d="M31.78,28.41a.72.72,0,0,1-.46-.16.75.75,0,0,1-.13-1.05,15,15,0,0,1,4.05-3.5,15.12,15.12,0,0,0,5.24-5.79.75.75,0,0,1,1.36.64A16.5,16.5,0,0,1,36,25a13.34,13.34,0,0,0-3.64,3.14A.74.74,0,0,1,31.78,28.41Z"/><path d="M55.63,28.76a.75.75,0,0,1-.65-.37,14,14,0,0,0-4.68-4,15.12,15.12,0,0,1-5.64-5.85A.75.75,0,0,1,46,17.91a13.9,13.9,0,0,0,5,5.21c3.86,2.26,5.17,4.42,5.22,4.51a.74.74,0,0,1-.26,1A.76.76,0,0,1,55.63,28.76Z"/><path d="M38.07,32.75l-.19,0a.75.75,0,0,1-.54-.91,49.45,49.45,0,0,1,4.58-11.28.76.76,0,0,1,1-.26.74.74,0,0,1,.27,1A47.52,47.52,0,0,0,38.8,32.18.77.77,0,0,1,38.07,32.75Z"/><path d="M48.49,30a.74.74,0,0,1-.74-.63c-.55-3.57-3.7-8-3.73-8.06a.75.75,0,1,1,1.22-.87c.14.19,3.39,4.77,4,8.7a.76.76,0,0,1-.63.86Z"/></svg>